<svg width="16" height="16" viewBox="0 0 16 16" fill="none" xmlns="http://www.w3.org/2000/svg">
<path d="M8.00001 12.3617L4.38001 14.2584C4.27258 14.3143 4.15173 14.3392 4.03094 14.3304C3.91016 14.3217 3.79419 14.2795 3.696 14.2086C3.5978 14.1377 3.52124 14.0409 3.47486 13.929C3.42848 13.8172 3.4141 13.6946 3.43334 13.575L4.12501 9.55671L1.19668 6.71171C1.10927 6.62721 1.04738 6.51984 1.01808 6.40186C0.988776 6.28387 0.993234 6.16002 1.03095 6.04445C1.06866 5.92888 1.13811 5.82624 1.23136 5.74825C1.32462 5.67025 1.43792 5.62005 1.55834 5.60337L5.60501 5.01671L7.41501 1.36171C7.46914 1.25285 7.55257 1.16125 7.65592 1.09722C7.75927 1.03319 7.87843 0.999268 8.00001 0.999268C8.12159 0.999268 8.24075 1.03319 8.3441 1.09722C8.44745 1.16125 8.53088 1.25285 8.58501 1.36171L10.395 5.01671L14.4417 5.60337C14.5617 5.62065 14.6746 5.67117 14.7674 5.74924C14.8603 5.8273 14.9294 5.92979 14.9671 6.04511C15.0047 6.16043 15.0093 6.28398 14.9804 6.40178C14.9514 6.51958 14.8901 6.62694 14.8033 6.71171L11.875 9.55671L12.565 13.5734C12.5857 13.6932 12.5724 13.8163 12.5266 13.9289C12.4809 14.0415 12.4044 14.139 12.306 14.2104C12.2076 14.2817 12.0911 14.324 11.9699 14.3325C11.8486 14.341 11.7274 14.3153 11.62 14.2584L8.00001 12.3617Z" stroke="#0D0D0D" stroke-width="1.5" stroke-linecap="round" stroke-linejoin="round"/>
</svg>
